<svg width="281" height="55" viewBox="0 0 281 55" fill="none" xmlns="http://www.w3.org/2000/svg">
<path d="M128.919 38.8423C128.758 37.9438 128.367 35.9639 127.747 32.9023L128.802 32.7778L129.19 34.6382C129.327 35.2925 129.434 35.6685 129.512 35.7661C129.595 35.8589 129.693 35.9443 129.805 36.0225C129.922 36.0957 130.03 36.1494 130.127 36.1836C130.225 36.2178 130.499 36.3154 130.948 36.4766C131.963 36.833 132.957 37.0112 133.929 37.0112C134.905 37.0112 135.694 36.8696 136.294 36.5864C136.895 36.3032 137.381 35.8809 137.752 35.3193C138.123 34.7578 138.309 34.2036 138.309 33.6567C138.309 33.105 138.235 32.6582 138.089 32.3164C137.942 31.9746 137.757 31.6694 137.532 31.4009C137.312 31.1323 137.024 30.8564 136.668 30.5732C136.121 30.1436 135.389 29.6797 134.471 29.1816L133.24 28.4932C132.02 27.8096 131.233 27.2993 130.882 26.9624C130.53 26.6255 130.242 26.3203 130.018 26.0469C129.798 25.7734 129.622 25.4927 129.49 25.2046C129.192 24.5552 129.043 23.8521 129.043 23.0952C129.043 22.3335 129.214 21.6157 129.556 20.9419C129.898 20.2681 130.347 19.7017 130.904 19.2427C132.11 18.2466 133.479 17.7485 135.013 17.7485C135.774 17.7485 136.456 17.8486 137.056 18.0488C137.657 18.249 137.999 18.3491 138.082 18.3491C138.165 18.3491 138.243 18.2856 138.316 18.1587C138.394 18.0269 138.443 17.8315 138.462 17.5728L139.48 17.5068L139.927 23L138.851 23.0293L138.58 20.3633C137.945 19.8701 137.042 19.5137 135.87 19.2939C135.416 19.2061 134.917 19.1621 134.375 19.1621C133.838 19.1621 133.306 19.2964 132.779 19.5649C132.251 19.8335 131.827 20.2144 131.504 20.7075C131.182 21.2007 131.021 21.6792 131.021 22.1431C131.021 22.6069 131.065 22.9829 131.153 23.271C131.241 23.5542 131.373 23.8203 131.548 24.0693C131.729 24.3184 131.924 24.5503 132.134 24.7651C132.344 24.98 132.603 25.1973 132.911 25.417C133.384 25.7539 134.004 26.1372 134.771 26.5669L136.419 27.4678C137.596 28.1221 138.387 28.6348 138.792 29.0059C139.202 29.377 139.517 29.6943 139.737 29.958C139.961 30.2168 140.145 30.4805 140.286 30.749C140.589 31.3398 140.74 31.9526 140.74 32.5874C140.74 33.2173 140.645 33.8057 140.455 34.3525C140.269 34.8945 139.983 35.4048 139.598 35.8833C139.217 36.3569 138.758 36.7695 138.221 37.1211C137.068 37.8877 135.638 38.271 133.929 38.271C132.962 38.271 132.176 38.1807 131.57 38C130.965 37.8193 130.591 37.729 130.45 37.729C130.088 37.729 129.908 37.939 129.908 38.3589L129.937 38.7471L128.919 38.8423ZM143.311 38V36.8281H144.241C144.734 36.8281 145.022 36.7988 145.105 36.7402C145.188 36.6768 145.242 36.6035 145.267 36.5205C145.301 36.4277 145.318 36.2397 145.318 35.9565V20.2681C145.318 19.77 145.257 19.4722 145.135 19.3745C144.974 19.2524 144.654 19.1914 144.175 19.1914H143.399L143.428 17.9902H149.61C151.661 17.9902 152.969 18.0708 153.536 18.2319C154.483 18.5005 155.284 18.9009 155.938 19.4331C156.592 19.9604 157.151 20.6782 157.615 21.5864C158.079 22.4897 158.311 23.5103 158.311 24.6479C158.311 26.4253 157.566 27.8584 156.077 28.9473C155.013 29.7236 153.646 30.1118 151.976 30.1118C150.701 30.1118 149.375 29.9238 147.999 29.5479C147.837 29.5039 147.754 29.4819 147.75 29.4819V35.9565C147.75 36.3765 147.835 36.6182 148.006 36.6816C148.26 36.7793 148.853 36.8281 149.786 36.8281H151.287V38H143.311ZM147.75 28.5811C148.257 28.9619 149.251 29.1523 150.73 29.1523C152.21 29.1523 153.372 28.7642 154.217 27.9878C155.066 27.2114 155.491 26.0786 155.491 24.5894C155.491 22.5581 154.549 21.0542 152.664 20.0776C151.526 19.4868 150.188 19.1914 148.65 19.1914C148.299 19.1914 148.074 19.25 147.977 19.3672C147.825 19.5527 147.75 19.9531 147.75 20.5684V28.5811ZM161.255 27.8853C161.255 26.938 161.392 25.9614 161.666 24.9556C161.939 23.9448 162.317 23.0562 162.801 22.2896C163.284 21.5229 163.853 20.8369 164.507 20.2314C165.167 19.626 165.884 19.1328 166.661 18.752C168.248 17.9658 169.915 17.5728 171.663 17.5728C173.973 17.5728 176.045 18.21 177.881 19.4844C179.825 20.8369 181.082 22.7559 181.653 25.2412C181.854 26.1152 181.954 26.9844 181.954 27.8486C181.954 28.708 181.883 29.5039 181.741 30.2363C181.604 30.9639 181.39 31.6743 181.097 32.3677C180.809 33.061 180.455 33.7129 180.035 34.3232C179.615 34.9336 179.112 35.4951 178.526 36.0078C177.945 36.5156 177.303 36.9526 176.6 37.3188C175.115 38.0952 173.392 38.4834 171.429 38.4834C168.689 38.4834 166.402 37.6753 164.566 36.0591C162.359 34.1206 161.255 31.396 161.255 27.8853ZM164.881 22.6704C164.598 23.2319 164.373 23.9009 164.207 24.6772C164.041 25.4536 163.958 26.2422 163.958 27.043C163.958 27.8438 164.014 28.5908 164.126 29.2842C164.244 29.9727 164.419 30.6465 164.654 31.3057C164.893 31.96 165.179 32.5825 165.511 33.1733C165.848 33.7593 166.248 34.2988 166.712 34.792C167.176 35.2803 167.684 35.7026 168.235 36.0591C169.393 36.811 170.726 37.187 172.234 37.187C173.45 37.187 174.588 36.8794 175.647 36.2642C176.702 35.6538 177.557 34.7212 178.211 33.4663C178.89 32.1772 179.229 30.6074 179.229 28.7568C179.229 25.7686 178.367 23.3174 176.644 21.4033C175.652 20.2949 174.454 19.5283 173.047 19.1035C172.383 18.9033 171.778 18.8032 171.231 18.8032C170.689 18.8032 170.206 18.8423 169.781 18.9204C169.356 18.9985 168.909 19.1353 168.44 19.3306C167.972 19.521 167.525 19.7603 167.1 20.0483C166.675 20.3315 166.27 20.7002 165.884 21.1543C165.499 21.6035 165.164 22.1089 164.881 22.6704ZM200.755 17.9902L200.396 22.7876L199.312 22.7583C199.434 21.3228 199.495 20.4536 199.495 20.1509C199.495 19.8433 199.388 19.626 199.173 19.499C198.963 19.3721 198.56 19.3086 197.964 19.3086C196.641 19.3086 195.618 19.3086 194.896 19.3086C194.173 19.3086 193.746 19.3208 193.614 19.3452C193.487 19.3696 193.394 19.3892 193.335 19.4038C193.277 19.4136 193.216 19.4526 193.152 19.521C193.089 19.5894 193.047 19.6455 193.028 19.6895C193.013 19.7285 192.996 19.8164 192.977 19.9531C192.962 20.085 192.955 20.1973 192.955 20.29V35.4512C192.955 36.0713 193.055 36.4595 193.255 36.6157C193.436 36.7573 193.914 36.8281 194.69 36.8281H195.892L195.921 38L188.003 37.9707V36.8281C188.34 36.8281 188.624 36.8281 188.853 36.8281C189.083 36.8281 189.275 36.8232 189.432 36.8135C189.588 36.8037 189.703 36.7964 189.776 36.7915C189.849 36.7817 189.932 36.7646 190.025 36.7402C190.123 36.7109 190.188 36.6841 190.223 36.6597C190.262 36.6353 190.306 36.5962 190.354 36.5425C190.403 36.4888 190.433 36.4375 190.442 36.3887C190.457 36.335 190.472 36.2617 190.486 36.1689C190.511 36.0566 190.523 35.8564 190.523 35.5684V20.9932C190.523 20.2266 190.474 19.7798 190.376 19.6528C190.284 19.521 190.179 19.4355 190.062 19.3965C189.91 19.3379 189.625 19.3086 189.205 19.3086H186.055C185.401 19.3086 184.996 19.3623 184.839 19.4697C184.683 19.5723 184.573 19.6724 184.51 19.77C184.446 19.8677 184.395 19.98 184.356 20.1069C184.322 20.229 184.29 20.3804 184.261 20.561C184.231 20.7905 184.197 21.1738 184.158 21.7109C184.124 22.2432 184.097 22.624 184.078 22.8535L182.994 22.8169C183.169 21.1226 183.318 19.5137 183.44 17.9902H200.755ZM218.699 17.9316L218.707 17.7485H219.842C219.9 19.6968 220.02 21.6084 220.201 23.4834L219.124 23.5127C219.031 22.7363 218.98 22.2773 218.97 22.1357C218.965 21.9941 218.948 21.8428 218.919 21.6816C218.89 21.5156 218.87 21.4058 218.86 21.3521C218.855 21.2983 218.824 21.2251 218.765 21.1323C218.711 21.0347 218.667 20.9761 218.633 20.9565C218.604 20.9321 218.538 20.8857 218.436 20.8174C218.333 20.749 218.243 20.7002 218.165 20.6709C217.999 20.6172 217.693 20.4756 217.249 20.2461C216.805 20.0166 216.111 19.8091 215.169 19.6235C214.231 19.4331 213.274 19.3379 212.298 19.3379C211.321 19.3379 210.391 19.4819 209.507 19.77C208.624 20.0581 207.845 20.4634 207.171 20.9858C206.497 21.5034 205.914 22.1113 205.42 22.8096C204.415 24.2256 203.912 25.8589 203.912 27.7095C203.912 29.2866 204.302 30.8076 205.083 32.2725C205.845 33.7031 206.912 34.8701 208.284 35.7734C209.695 36.6963 211.268 37.1577 213.001 37.1577C214.671 37.1577 216.312 36.6206 217.923 35.5464C218.812 34.9556 219.261 34.4624 219.271 34.0669L219.366 31.5474H220.413L220.237 35.9272C218.465 37.1675 216.414 37.9707 214.085 38.3369C213.465 38.4346 212.854 38.4834 212.254 38.4834C208.802 38.4834 206.119 37.5898 204.205 35.8027C202.31 34.0352 201.363 31.6279 201.363 28.5811C201.363 25.7295 202.283 23.3271 204.124 21.374C205.149 20.2852 206.434 19.4233 207.977 18.7886C209.358 18.2173 210.662 17.9316 211.888 17.9316C213.118 17.9316 214.134 17.9805 214.935 18.0781C215.74 18.1758 216.331 18.2832 216.707 18.4004C217.083 18.5127 217.41 18.6177 217.688 18.7153C217.967 18.813 218.155 18.8618 218.252 18.8618C218.35 18.8618 218.428 18.8545 218.487 18.8398C218.545 18.8203 218.592 18.7715 218.626 18.6934C218.675 18.5811 218.699 18.3271 218.699 17.9316ZM222.676 36.8281H223.035C223.572 36.8281 223.931 36.7354 224.112 36.5498C224.292 36.3643 224.5 36.0078 224.734 35.4805C224.974 34.9482 225.279 34.2671 225.65 33.437C226.026 32.6021 226.5 31.5498 227.071 30.2803C227.642 29.0059 228.055 28.0879 228.309 27.5264C228.562 26.9648 228.782 26.4839 228.968 26.0835C229.153 25.6782 229.28 25.395 229.349 25.2339C229.417 25.0728 229.493 24.897 229.576 24.7065L232.63 17.2725H233.26C234.471 20.4316 236.001 24.2524 237.852 28.7349C239.703 33.2124 240.726 35.6343 240.921 36.0005C241.116 36.3667 241.316 36.5962 241.521 36.689C241.731 36.7817 242.02 36.8281 242.386 36.8281H242.833L242.803 38H235.962L235.992 36.8281H236.893C237.391 36.8281 237.735 36.8086 237.925 36.7695C238.116 36.7256 238.211 36.6255 238.211 36.4692C238.211 36.3569 238.165 36.1885 238.072 35.9639C237.984 35.7344 237.93 35.5928 237.911 35.5391L235.691 30.0825H228.733L226.36 35.3633C226.16 35.8516 226.06 36.1909 226.06 36.3813C226.06 36.5718 226.136 36.6938 226.287 36.7476C226.443 36.8013 226.778 36.8281 227.291 36.8281H228.521V38H222.706L222.676 36.8281ZM229.305 28.7568H235.186L232.337 21.6523L229.305 28.7568ZM245.55 38.8423C245.389 37.9438 244.998 35.9639 244.378 32.9023L245.433 32.7778L245.821 34.6382C245.958 35.2925 246.065 35.6685 246.143 35.7661C246.226 35.8589 246.324 35.9443 246.436 36.0225C246.553 36.0957 246.661 36.1494 246.758 36.1836C246.856 36.2178 247.129 36.3154 247.579 36.4766C248.594 36.833 249.588 37.0112 250.56 37.0112C251.536 37.0112 252.325 36.8696 252.925 36.5864C253.526 36.3032 254.012 35.8809 254.383 35.3193C254.754 34.7578 254.939 34.2036 254.939 33.6567C254.939 33.105 254.866 32.6582 254.72 32.3164C254.573 31.9746 254.388 31.6694 254.163 31.4009C253.943 31.1323 253.655 30.8564 253.299 30.5732C252.752 30.1436 252.02 29.6797 251.102 29.1816L249.871 28.4932C248.65 27.8096 247.864 27.2993 247.513 26.9624C247.161 26.6255 246.873 26.3203 246.648 26.0469C246.429 25.7734 246.253 25.4927 246.121 25.2046C245.823 24.5552 245.674 23.8521 245.674 23.0952C245.674 22.3335 245.845 21.6157 246.187 20.9419C246.529 20.2681 246.978 19.7017 247.535 19.2427C248.741 18.2466 250.11 17.7485 251.644 17.7485C252.405 17.7485 253.086 17.8486 253.687 18.0488C254.288 18.249 254.629 18.3491 254.712 18.3491C254.795 18.3491 254.874 18.2856 254.947 18.1587C255.025 18.0269 255.074 17.8315 255.093 17.5728L256.111 17.5068L256.558 23L255.481 23.0293L255.21 20.3633C254.576 19.8701 253.672 19.5137 252.5 19.2939C252.046 19.2061 251.548 19.1621 251.006 19.1621C250.469 19.1621 249.937 19.2964 249.41 19.5649C248.882 19.8335 248.458 20.2144 248.135 20.7075C247.813 21.2007 247.652 21.6792 247.652 22.1431C247.652 22.6069 247.696 22.9829 247.784 23.271C247.872 23.5542 248.003 23.8203 248.179 24.0693C248.36 24.3184 248.555 24.5503 248.765 24.7651C248.975 24.98 249.234 25.1973 249.542 25.417C250.015 25.7539 250.635 26.1372 251.402 26.5669L253.05 27.4678C254.227 28.1221 255.018 28.6348 255.423 29.0059C255.833 29.377 256.148 29.6943 256.368 29.958C256.592 30.2168 256.775 30.4805 256.917 30.749C257.22 31.3398 257.371 31.9526 257.371 32.5874C257.371 33.2173 257.276 33.8057 257.085 34.3525C256.9 34.8945 256.614 35.4048 256.229 35.8833C255.848 36.3569 255.389 36.7695 254.852 37.1211C253.699 37.8877 252.269 38.271 250.56 38.271C249.593 38.271 248.807 38.1807 248.201 38C247.596 37.8193 247.222 37.729 247.081 37.729C246.719 37.729 246.539 37.939 246.539 38.3589L246.568 38.7471L245.55 38.8423ZM259.942 19.1914V17.9902H267.405V19.1914H266.629C265.877 19.1914 265.44 19.2402 265.318 19.3379C265.196 19.4355 265.108 19.5356 265.054 19.6382C264.966 19.8042 264.922 20.0947 264.922 20.5098V26.208H274.671V20.2681C274.671 19.7358 274.625 19.4429 274.532 19.3892C274.444 19.3306 274.329 19.2842 274.188 19.25C274.031 19.2109 273.672 19.1914 273.111 19.1914H271.851L271.822 17.9902H279.439V19.1914H278.597C277.933 19.1914 277.544 19.2378 277.432 19.3306C277.325 19.4233 277.249 19.5186 277.205 19.6162C277.137 19.7725 277.103 20.0508 277.103 20.4512V35.5977C277.103 36.1738 277.193 36.5229 277.374 36.645C277.559 36.7671 278.067 36.8281 278.897 36.8281H279.922L279.886 38H272.422L272.386 36.8281H273.257C273.917 36.8281 274.295 36.7817 274.393 36.689C274.49 36.5962 274.559 36.4937 274.598 36.3813C274.646 36.2251 274.671 35.9346 274.671 35.5098V27.6509H264.922V35.5098C264.922 36.1104 265.037 36.4839 265.267 36.6304C265.467 36.7622 266.07 36.8281 267.076 36.8281H267.947L267.889 38H260.206L260.176 36.8281C260.606 36.8281 260.958 36.8281 261.231 36.8281C261.504 36.8281 261.707 36.8184 261.839 36.7988C261.976 36.7793 262.068 36.7646 262.117 36.7549C262.171 36.7451 262.229 36.7109 262.293 36.6523C262.361 36.5889 262.4 36.5376 262.41 36.4985C262.425 36.4595 262.442 36.3789 262.461 36.2568C262.481 36.1299 262.491 36.0225 262.491 35.9346V20.1802C262.491 19.7163 262.381 19.4355 262.161 19.3379C261.946 19.2402 261.465 19.1914 260.718 19.1914H259.942Z" fill="#FC9179"/>
<ellipse cx="64.4079" cy="27.5" rx="33.2895" ry="27.5" fill="#EC4F2B" fill-opacity="0.9"/>
<ellipse cx="33.2895" cy="27.5" rx="33.2895" ry="27.5" fill="#C4C4C4" fill-opacity="0.5"/>
<path d="M57.4023 17.082L57.5195 18.0781V18.4004C57.5195 18.6413 57.4251 18.7617 57.2363 18.7617C56.9954 18.7617 56.7871 18.6641 56.6113 18.4688C56.4421 18.2734 56.2923 18.0911 56.1621 17.9219C56.0384 17.7526 55.8919 17.5573 55.7227 17.3359C55.5599 17.1081 55.2669 16.8444 54.8438 16.5449C54.4206 16.2389 54.0104 16.0143 53.6133 15.8711C52.7539 15.5456 51.9889 15.3633 51.3184 15.3242V24.3574C51.6829 24.5462 52.1973 24.8034 52.8613 25.1289C53.5319 25.4479 54.0202 25.6888 54.3262 25.8516C54.6387 26.0078 55.0488 26.2292 55.5566 26.5156C56.0645 26.8021 56.4421 27.0495 56.6895 27.2578C56.9368 27.4596 57.2233 27.7233 57.5488 28.0488C57.8809 28.3678 58.1217 28.6836 58.2715 28.9961C58.6491 29.7969 58.8379 30.5684 58.8379 31.3105C58.8379 32.0527 58.75 32.7103 58.5742 33.2832C58.4049 33.8561 58.1738 34.3542 57.8809 34.7773C57.5879 35.194 57.2526 35.5814 56.875 35.9395C56.4974 36.291 56.1003 36.584 55.6836 36.8184C55.2669 37.0527 54.8503 37.2611 54.4336 37.4434C54.0169 37.6257 53.6198 37.7656 53.2422 37.8633C52.4023 38.0911 51.748 38.2311 51.2793 38.2832V44.6797H50.0391V38.3223C48.3594 38.3223 46.9434 38.1986 45.791 37.9512C44.6452 37.6973 43.8639 37.4824 43.4473 37.3066C43.0306 37.1309 42.7734 36.9551 42.6758 36.7793C42.5781 36.597 42.4967 36.2878 42.4316 35.8516C42.373 35.4154 42.3307 35.1126 42.3047 34.9434C42.2852 34.7676 42.2461 34.5137 42.1875 34.1816C42.1354 33.8431 42.0898 33.5697 42.0508 33.3613C42.0182 33.1465 42.002 33.013 42.002 32.9609C42.002 32.5573 42.1484 32.3555 42.4414 32.3555C42.6953 32.3555 42.8678 32.4596 42.959 32.668C43.0501 32.8698 43.1217 33.0586 43.1738 33.2344C43.2324 33.4036 43.3073 33.5924 43.3984 33.8008C43.4896 34.0026 43.6003 34.2142 43.7305 34.4355C43.8607 34.6504 44.0462 34.8717 44.2871 35.0996C44.528 35.3275 44.8079 35.5456 45.127 35.7539C45.8431 36.2227 46.7057 36.5677 47.7148 36.7891C48.724 37.0104 49.4987 37.1211 50.0391 37.1211V27.0039C49.9219 26.9453 49.681 26.8281 49.3164 26.6523C48.9518 26.4766 48.6654 26.3398 48.457 26.2422C48.2487 26.138 47.9492 25.9818 47.5586 25.7734C47.168 25.5586 46.849 25.373 46.6016 25.2168C46.3542 25.0605 46.0547 24.862 45.7031 24.6211C45.3516 24.3737 45.0618 24.1426 44.834 23.9277C44.6061 23.7129 44.3652 23.4622 44.1113 23.1758C43.8574 22.8828 43.6589 22.5964 43.5156 22.3164C43.1706 21.6654 42.998 21.0273 42.998 20.4023C42.998 19.7773 43.0794 19.2044 43.2422 18.6836C43.4049 18.1562 43.623 17.7038 43.8965 17.3262C44.1699 16.9486 44.4824 16.6003 44.834 16.2812C45.1855 15.9622 45.5566 15.6986 45.9473 15.4902C46.3444 15.2819 46.7383 15.0964 47.1289 14.9336C47.5195 14.7708 47.8906 14.6439 48.2422 14.5527C48.8737 14.39 49.4857 14.2728 50.0781 14.2012V10.998H51.3184V14.2012C53.3561 14.429 54.5247 14.582 54.8242 14.6602C55.1758 14.7513 55.3939 14.7969 55.4785 14.7969L56.6797 14.5234C56.849 14.5234 56.9629 14.6048 57.0215 14.7676C57.0801 14.9238 57.1322 15.1875 57.1777 15.5586C57.2298 15.9232 57.2624 16.151 57.2754 16.2422C57.2884 16.3268 57.3047 16.4505 57.3242 16.6133C57.3503 16.776 57.3763 16.9323 57.4023 17.082ZM46.0742 17.8633C45.918 18.2734 45.8398 18.6966 45.8398 19.1328C45.8398 19.5625 45.918 19.9661 46.0742 20.3438C46.2305 20.7214 46.4323 21.0632 46.6797 21.3691C46.9271 21.6686 47.2005 21.9583 47.5 22.2383C47.806 22.5117 48.112 22.7461 48.418 22.9414C49.0104 23.332 49.5638 23.6576 50.0781 23.918V15.3242C47.9883 15.5586 46.6536 16.4049 46.0742 17.8633ZM51.2793 37.082C52.8809 36.9779 54.2253 36.2031 55.3125 34.7578C55.8529 34.0417 56.123 33.3678 56.123 32.7363C56.123 32.1048 56.0319 31.5807 55.8496 31.1641C55.6738 30.7409 55.4427 30.3698 55.1562 30.0508C54.8763 29.7253 54.5638 29.4193 54.2188 29.1328C53.8737 28.8464 53.5286 28.6022 53.1836 28.4004C52.5 28.0033 51.8652 27.6842 51.2793 27.4434V37.082Z" fill="#1F1F21"/>
</svg>
